<svg xmlns="http://www.w3.org/2000/svg" width="157.465" height="76.493" viewBox="0 0 157.465 76.493">
  <g id="Group_28" data-name="Group 28" transform="translate(-3588 -52.329)">
    <g id="Group_24" data-name="Group 24" transform="translate(3644.183 52.329)">
      <path id="Path_69" data-name="Path 69" d="M4191.584,123.362v14.117c0,5.072-.244,7.823-2.873,12.345-1.528,2.628-3.911,5.378-10.511,10.389l-1.283-.428c4.766-5.072,5.805-8.434,6.478-10.939.917-3.178,1.467-10.756,1.467-24.445v-4.217c0-2.322-.061-12.651-.55-15.828-1.467-.245-6.295-.733-8.067-.856l-.245-1.284c1.467.122,8.678.245,12.04.245,3.3,0,8.495-.122,10.572-.244l-.183,1.283c-1.039.122-4.4.611-6.54.856-.244,1.894-.305,14.423-.305,15.767Z" transform="translate(-4176 -97.449)" fill="#1d62a7"/>
      <path id="Path_70" data-name="Path 70" d="M4424.2,144.2a46.958,46.958,0,0,0,6.172-.856c-1.1-3.178-5.439-16.134-6.417-17.906-2.139,0-11.856.428-14.117.794-.366.856-3.667,12.406-4.278,17.112a34.939,34.939,0,0,0,5.256.856l.244,1.283c-1.895-.122-7.456-.245-9.228-.245-1.589,0-5.684.122-7.089.245l.184-1.283a47.157,47.157,0,0,0,5.256-.856c2.2-3.85,14.362-36.729,15.217-39.052a39.8,39.8,0,0,0-4.828-.794l-.061-1.284c1.833.122,6.906.245,7.945.245,2.566,0,8.678-.122,10.45-.244l-.183,1.283a35,35,0,0,0-4.645.794c.733,2.689,4.095,12.284,6.417,18.7,1.711,4.706,5.5,14.973,8.311,20.351,1.772.367,3.544.611,5.378.856l.183,1.283c-.733-.122-6.906-.245-10.145-.245-1.772,0-8.679.122-10.329.245Zm-6.906-38.868h-.123c-1.895,5.439-5.867,16.012-6.478,18.029l12.834.244C4422.182,119.572,4418.331,108.694,4417.292,105.333Z" transform="translate(-4373.841 -97.449)" fill="#1d62a7"/>
      <path id="Path_71" data-name="Path 71" d="M4919.217,106.292c.123-.856.978-7.639.978-10.023,0-1.589.367-8.189.183-9.656l1.406.367a44.128,44.128,0,0,0,.428,5.378,10.436,10.436,0,0,0,9.473,6.661c4.828,0,8.678-3.178,8.678-7.7,0-4.95-3.85-7.395-7.823-9.962-5.989-3.911-10.756-7.334-10.756-14.24,0-4.767,3.545-10.756,12.589-10.756a34.627,34.627,0,0,1,8.25,1.1c.428-1.467.733-3.3,1.1-4.95l1.406-.183a123.514,123.514,0,0,0-1.467,16.745l-1.406-.611a40.505,40.505,0,0,0-.245-4.645,8.949,8.949,0,0,0-8.128-5.5c-5.256,0-7.456,3.361-7.456,6.111,0,3.972,4.156,6.111,8.8,9.045,5.072,3.178,10.206,6.6,10.206,14.3,0,8.495-6.723,13.323-15.034,13.323-2.934,0-6.723-.611-8.434-1.528-.306,1.161-.917,4.095-1.345,6.356Z" transform="translate(-4848.203 -52.329)" fill="#efaf4e"/>
    </g>
    <g id="Group_26" data-name="Group 26" transform="translate(3597.383 116.516)">
      <g id="Group_25" data-name="Group 25">
        <path id="Path_72" data-name="Path 72" d="M3687.289,724.1a1.047,1.047,0,0,1,.772.326,1.082,1.082,0,0,1,.322.79,1.071,1.071,0,0,1-.319.781,1.035,1.035,0,0,1-.763.323,1.049,1.049,0,0,1-.779-.329,1.1,1.1,0,0,1-.322-.8,1.09,1.09,0,0,1,1.088-1.091Zm-.856,2.81h1.712v6.824h-1.712Z" transform="translate(-3686.201 -724.1)" fill="#efaf4e"/>
        <path id="Path_73" data-name="Path 73" d="M3722.83,751.846h1.712v.7a4.108,4.108,0,0,1,1.055-.683,2.55,2.55,0,0,1,.968-.192,2.344,2.344,0,0,1,1.723.709,2.435,2.435,0,0,1,.595,1.781v4.51h-1.693v-2.989a7.537,7.537,0,0,0-.11-1.622,1.112,1.112,0,0,0-.381-.611,1.07,1.07,0,0,0-.673-.21,1.26,1.26,0,0,0-.892.348,1.856,1.856,0,0,0-.516.962,7.73,7.73,0,0,0-.075,1.385v2.738h-1.712Z" transform="translate(-3719.33 -749.036)" fill="#efaf4e"/>
        <path id="Path_74" data-name="Path 74" d="M3803.507,751.846h1.712v.7a4.1,4.1,0,0,1,1.056-.683,2.548,2.548,0,0,1,.967-.192,2.343,2.343,0,0,1,1.723.709,2.435,2.435,0,0,1,.6,1.781v4.51h-1.694v-2.989a7.581,7.581,0,0,0-.109-1.622,1.112,1.112,0,0,0-.382-.611,1.069,1.069,0,0,0-.672-.21,1.261,1.261,0,0,0-.892.348,1.859,1.859,0,0,0-.516.962,7.73,7.73,0,0,0-.075,1.385v2.738h-1.712Z" transform="translate(-3792.298 -749.036)" fill="#efaf4e"/>
        <path id="Path_75" data-name="Path 75" d="M3884.243,751.67a3.617,3.617,0,0,1,1.816.483,3.541,3.541,0,0,1,1.8,3.1,3.585,3.585,0,0,1-.48,1.807,3.463,3.463,0,0,1-1.308,1.314,3.611,3.611,0,0,1-1.825.474,3.4,3.4,0,0,1-2.506-1.044,3.617,3.617,0,0,1,.135-5.2A3.425,3.425,0,0,1,3884.243,751.67Zm.028,1.612a1.761,1.761,0,0,0-1.329.555,1.971,1.971,0,0,0-.531,1.421,2.008,2.008,0,0,0,.525,1.443,1.753,1.753,0,0,0,1.329.552,1.775,1.775,0,0,0,1.338-.558,2.2,2.2,0,0,0,.009-2.863A1.774,1.774,0,0,0,3884.271,753.282Z" transform="translate(-3862.12 -749.036)" fill="#efaf4e"/>
        <path id="Path_76" data-name="Path 76" d="M3962.6,753.509h1.745l1.724,4.027,1.72-4.027h1.735l-2.9,6.824h-1.11Z" transform="translate(-3936.187 -750.699)" fill="#efaf4e"/>
        <path id="Path_77" data-name="Path 77" d="M4047.606,751.846h1.712v6.824h-1.712v-.721a3.358,3.358,0,0,1-1.006.687,2.816,2.816,0,0,1-1.093.21,3.037,3.037,0,0,1-2.287-1.026,3.578,3.578,0,0,1-.965-2.55,3.665,3.665,0,0,1,.934-2.59,2.975,2.975,0,0,1,2.268-1.01,2.881,2.881,0,0,1,1.152.232,3.149,3.149,0,0,1,1,.7Zm-1.8,1.4a1.73,1.73,0,0,0-1.319.561,2.023,2.023,0,0,0-.525,1.439,2.044,2.044,0,0,0,.535,1.455,1.732,1.732,0,0,0,1.316.571,1.763,1.763,0,0,0,1.337-.561,2.051,2.051,0,0,0,.531-1.471,1.992,1.992,0,0,0-.531-1.443A1.785,1.785,0,0,0,4045.806,753.251Z" transform="translate(-4008.235 -749.036)" fill="#efaf4e"/>
        <path id="Path_78" data-name="Path 78" d="M4128.145,727.185h1.712V729.7h1.016v1.474h-1.016v5.35h-1.712v-5.35h-.878V729.7h.878Z" transform="translate(-4085.123 -726.89)" fill="#efaf4e"/>
        <path id="Path_79" data-name="Path 79" d="M4171.285,724.1a1.048,1.048,0,0,1,.772.326,1.083,1.083,0,0,1,.322.79,1.07,1.07,0,0,1-.319.781,1.033,1.033,0,0,1-.763.323,1.051,1.051,0,0,1-.779-.329,1.1,1.1,0,0,1-.322-.8,1.09,1.09,0,0,1,1.088-1.091Zm-.856,2.81h1.713v6.824h-1.713Z" transform="translate(-4123.951 -724.1)" fill="#efaf4e"/>
        <path id="Path_80" data-name="Path 80" d="M4199.179,753.509h1.745l1.724,4.027,1.721-4.027h1.735l-2.9,6.824h-1.11Z" transform="translate(-4150.165 -750.699)" fill="#efaf4e"/>
        <path id="Path_81" data-name="Path 81" d="M4285.93,755.753h-5.5a1.833,1.833,0,0,0,.637,1.157,2,2,0,0,0,1.32.43,2.283,2.283,0,0,0,1.649-.671l1.443.677a3.409,3.409,0,0,1-1.292,1.132,4.039,4.039,0,0,1-1.788.367,3.534,3.534,0,0,1-2.616-1.013,3.447,3.447,0,0,1-1.01-2.537,3.564,3.564,0,0,1,1.006-2.594,3.382,3.382,0,0,1,2.525-1.032,3.506,3.506,0,0,1,2.622,1.032,3.728,3.728,0,0,1,1.01,2.725Zm-1.712-1.349a1.719,1.719,0,0,0-.669-.928,1.942,1.942,0,0,0-1.16-.358,2.049,2.049,0,0,0-1.256.4,2.241,2.241,0,0,0-.628.884Z" transform="translate(-4222.153 -749.036)" fill="#efaf4e"/>
        <path id="Path_82" data-name="Path 82" d="M4399.649,727.185h1.712V729.7h1.016v1.474h-1.016v5.35h-1.712v-5.35h-.878V729.7h.878Z" transform="translate(-4330.686 -726.89)" fill="#efaf4e"/>
        <path id="Path_83" data-name="Path 83" d="M4449.909,755.753h-5.5a1.831,1.831,0,0,0,.637,1.157,2,2,0,0,0,1.32.43,2.282,2.282,0,0,0,1.649-.671l1.443.677a3.407,3.407,0,0,1-1.292,1.132,4.036,4.036,0,0,1-1.787.367,3.533,3.533,0,0,1-2.616-1.013,3.447,3.447,0,0,1-1.01-2.537,3.563,3.563,0,0,1,1.007-2.594,3.381,3.381,0,0,1,2.524-1.032,3.506,3.506,0,0,1,2.622,1.032,3.728,3.728,0,0,1,1.01,2.725ZM4448.2,754.4a1.715,1.715,0,0,0-.669-.928,1.939,1.939,0,0,0-1.159-.358,2.049,2.049,0,0,0-1.256.4,2.235,2.235,0,0,0-.628.884Z" transform="translate(-4370.465 -749.036)" fill="#efaf4e"/>
        <path id="Path_84" data-name="Path 84" d="M4535.693,753.226l-1.425.784a2.419,2.419,0,0,0-.794-.583,2.387,2.387,0,0,0-.92-.163,2.142,2.142,0,0,0-1.554.573,1.953,1.953,0,0,0-.593,1.469,1.886,1.886,0,0,0,.571,1.422,2.071,2.071,0,0,0,1.5.551,2.182,2.182,0,0,0,1.79-.784l1.35.924a4.159,4.159,0,0,1-5.918.361,3.547,3.547,0,0,1,.859-5.633,4.131,4.131,0,0,1,1.985-.477,4.024,4.024,0,0,1,1.825.4A3.461,3.461,0,0,1,4535.693,753.226Z" transform="translate(-4448.183 -749.036)" fill="#efaf4e"/>
        <path id="Path_85" data-name="Path 85" d="M4618.286,725.938h1.7v3.324a3.9,3.9,0,0,1,1.01-.649,2.6,2.6,0,0,1,1.028-.216,2.317,2.317,0,0,1,1.712.7,2.455,2.455,0,0,1,.6,1.788v4.51h-1.687V732.4a7.424,7.424,0,0,0-.113-1.606,1.124,1.124,0,0,0-.386-.627,1.084,1.084,0,0,0-.674-.207,1.272,1.272,0,0,0-.894.345,1.834,1.834,0,0,0-.518.941,7.779,7.779,0,0,0-.075,1.4V735.4h-1.7Z" transform="translate(-4529.226 -725.762)" fill="#efaf4e"/>
        <path id="Path_86" data-name="Path 86" d="M4698.9,751.846h1.712v.7a4.093,4.093,0,0,1,1.056-.683,2.548,2.548,0,0,1,.967-.192,2.344,2.344,0,0,1,1.723.709,2.435,2.435,0,0,1,.595,1.781v4.51h-1.693v-2.989a7.581,7.581,0,0,0-.109-1.622,1.115,1.115,0,0,0-.382-.611,1.07,1.07,0,0,0-.673-.21,1.261,1.261,0,0,0-.892.348,1.856,1.856,0,0,0-.516.962,7.73,7.73,0,0,0-.075,1.385v2.738H4698.9Z" transform="translate(-4602.135 -749.036)" fill="#efaf4e"/>
        <path id="Path_87" data-name="Path 87" d="M4779.633,751.67a3.619,3.619,0,0,1,1.816.483,3.541,3.541,0,0,1,1.8,3.1,3.585,3.585,0,0,1-.48,1.807,3.463,3.463,0,0,1-1.308,1.314,3.613,3.613,0,0,1-1.826.474,3.4,3.4,0,0,1-2.505-1.044,3.617,3.617,0,0,1,.135-5.2A3.424,3.424,0,0,1,4779.633,751.67Zm.028,1.612a1.761,1.761,0,0,0-1.329.555,1.969,1.969,0,0,0-.531,1.421,2.008,2.008,0,0,0,.524,1.443,1.755,1.755,0,0,0,1.329.552,1.773,1.773,0,0,0,1.338-.558,2.2,2.2,0,0,0,.01-2.863A1.774,1.774,0,0,0,4779.661,753.282Z" transform="translate(-4671.957 -749.036)" fill="#efaf4e"/>
        <path id="Path_88" data-name="Path 88" d="M4863.665,725.938h1.712V735.4h-1.712Z" transform="translate(-4751.159 -725.762)" fill="#efaf4e"/>
        <path id="Path_89" data-name="Path 89" d="M4897.924,751.67a3.62,3.62,0,0,1,1.816.483,3.541,3.541,0,0,1,1.8,3.1,3.589,3.589,0,0,1-.479,1.807,3.464,3.464,0,0,1-1.308,1.314,3.614,3.614,0,0,1-1.825.474,3.4,3.4,0,0,1-2.506-1.044,3.617,3.617,0,0,1,.135-5.2A3.425,3.425,0,0,1,4897.924,751.67Zm.028,1.612a1.763,1.763,0,0,0-1.329.555,1.971,1.971,0,0,0-.53,1.421,2.006,2.006,0,0,0,.524,1.443,1.753,1.753,0,0,0,1.329.552,1.773,1.773,0,0,0,1.337-.558,2.2,2.2,0,0,0,.01-2.863A1.776,1.776,0,0,0,4897.952,753.282Z" transform="translate(-4778.945 -749.036)" fill="#efaf4e"/>
        <path id="Path_90" data-name="Path 90" d="M4986.118,751.846h1.707v5.846a3.87,3.87,0,0,1-.7,2.547,3.484,3.484,0,0,1-2.816,1.1,4.936,4.936,0,0,1-1.687-.251,2.942,2.942,0,0,1-1.85-1.919h1.888a1.559,1.559,0,0,0,.646.436,2.671,2.671,0,0,0,.935.147,2.467,2.467,0,0,0,1.11-.213,1.286,1.286,0,0,0,.592-.552,2.793,2.793,0,0,0,.172-1.167,2.829,2.829,0,0,1-.947.649,3.011,3.011,0,0,1-1.123.2,3.085,3.085,0,0,1-2.321-.991,3.845,3.845,0,0,1,.057-5.118,2.993,2.993,0,0,1,2.17-.891,2.888,2.888,0,0,1,1.113.216,3.527,3.527,0,0,1,1.05.712Zm-1.775,1.424a1.784,1.784,0,0,0-1.336.542,1.882,1.882,0,0,0-.526,1.364,1.906,1.906,0,0,0,.539,1.4,1.825,1.825,0,0,0,1.354.546,1.753,1.753,0,0,0,1.314-.533,1.924,1.924,0,0,0,.518-1.4,1.9,1.9,0,0,0-.521-1.386A1.8,1.8,0,0,0,4984.343,753.27Z" transform="translate(-4857.079 -749.036)" fill="#efaf4e"/>
        <path id="Path_91" data-name="Path 91" d="M5069.366,724.1a1.048,1.048,0,0,1,.772.326,1.083,1.083,0,0,1,.322.79,1.07,1.07,0,0,1-.319.781,1.034,1.034,0,0,1-.763.323,1.049,1.049,0,0,1-.779-.329,1.1,1.1,0,0,1-.322-.8,1.09,1.09,0,0,1,1.088-1.091Zm-.856,2.81h1.713v6.824h-1.713Z" transform="translate(-4936.221 -724.1)" fill="#efaf4e"/>
        <path id="Path_92" data-name="Path 92" d="M5108.717,755.753h-5.5a1.832,1.832,0,0,0,.636,1.157,2,2,0,0,0,1.32.43,2.284,2.284,0,0,0,1.65-.671l1.442.677a3.4,3.4,0,0,1-1.292,1.132,4.037,4.037,0,0,1-1.788.367,3.532,3.532,0,0,1-2.615-1.013,3.445,3.445,0,0,1-1.01-2.537,3.563,3.563,0,0,1,1.007-2.594,3.382,3.382,0,0,1,2.525-1.032,3.505,3.505,0,0,1,2.621,1.032,3.726,3.726,0,0,1,1.01,2.725ZM5107,754.4a1.722,1.722,0,0,0-.669-.928,1.942,1.942,0,0,0-1.16-.358,2.048,2.048,0,0,0-1.256.4,2.241,2.241,0,0,0-.629.884Z" transform="translate(-4966.323 -749.036)" fill="#efaf4e"/>
        <path id="Path_93" data-name="Path 93" d="M5190.039,752.8l-1.061,1.06a1.792,1.792,0,0,0-1.173-.64.735.735,0,0,0-.451.122.366.366,0,0,0-.163.3.372.372,0,0,0,.1.254,1.928,1.928,0,0,0,.511.317l.627.314a3.694,3.694,0,0,1,1.361,1,2.077,2.077,0,0,1-.3,2.71,2.557,2.557,0,0,1-1.791.608,2.846,2.846,0,0,1-2.383-1.167l1.054-1.148a2.428,2.428,0,0,0,.705.568,1.563,1.563,0,0,0,.719.216.854.854,0,0,0,.545-.163.473.473,0,0,0,.208-.376q0-.4-.747-.771l-.577-.289q-1.655-.834-1.655-2.089a1.811,1.811,0,0,1,.624-1.383,2.264,2.264,0,0,1,1.6-.574,2.771,2.771,0,0,1,2.246,1.129Z" transform="translate(-5042.082 -749.036)" fill="#efaf4e"/>
      </g>
    </g>
    <g id="Group_27" data-name="Group 27" transform="translate(3588 55.742)">
      <path id="Path_94" data-name="Path 94" d="M3642.05,105.228A28.132,28.132,0,0,0,3588,115.715c1.767-1.386,4.389-2.951,5.739-1.376,2.154,2.513,0,7.807,1.167,5.833a9.707,9.707,0,0,1,2.732-2.769q-.041-.607-.041-1.224a18.53,18.53,0,0,1,37.061,0q0,.641-.043,1.27c.635,1.308,1.156,2.21,1.12,1.557a4.333,4.333,0,0,1,4.217-4.218c2.029-.185,3.511,1.948,4.243,3.309q.065-.954.065-1.919A27.956,27.956,0,0,0,3642.05,105.228Z" transform="translate(-3588.003 -88.047)" fill="#efaf4e"/>
    </g>
    <path id="Path_95" data-name="Path 95" d="M3643.405,366.256c-.68-.1-.68-.389-.292-.486s.583-1.165.321-1.814c-.648-.552-.127-.322-.71-1.2-2.719-2.816-5.147-.874-5.341-.1s-.389.486-.583,1.165a3.307,3.307,0,0,0,.583,2.622c.583.68.1.68.1.68s-5.05-4.564-5.438-5.244.194-1.262-.291-1.748a1.176,1.176,0,0,0-1.261-.1c.006-.017.056-.188-.778-.1-.874.1-1.068.874-1.359,1.263a1.975,1.975,0,0,0-.194,1.165s-2.913,3.107-3.01,3.3-.292.194-.292-.1a3.693,3.693,0,0,0,.1-2.039,3.208,3.208,0,0,0-4.661-1.262,3.728,3.728,0,0,0-.874,3.4c.194.1.777.485-.1.485a.923.923,0,0,1-.971-.777,9.17,9.17,0,0,0,1.068-3.4c-.1-1.165-.874-2.233-2.913-2.622s-2.719,2.233-2.913,2.428a1.335,1.335,0,0,0,0,1.457,3.624,3.624,0,0,1,.485,1.262.733.733,0,0,1-.1,1.068,5.954,5.954,0,0,0-2.428.486c-1.651,2.331-2.331,2.525-2.331,2.136a2.708,2.708,0,0,0-2.719-2.233,2.658,2.658,0,0,0-2.719,1.942,1.423,1.423,0,0,0-.194,1.068c.1.291.583.291.1.971-1.262.291-1.165-1.262-1.068-1.359.194-.583.1-1.165-.1-1.262s.583-1.651,0-2.331c-3.884-3.5-6.118-.194-6.409.388a2.771,2.771,0,0,0,.194,2.719c1.262,1.554.486,1.262.486,1.262-3.2-.486-3.2-2.913-3.5-2.816s-.486-.291-.486-.291a3.274,3.274,0,0,0,1.242-2.544c-.021-2.447-.465-3.379-2.6-3.477s-2.525,2.525-2.525,2.525c-.291,0-.485.874-.291,1.068.37.37.291.68.583.971s.292.874.1,1.554-1.316.692-1.316.692c.045,4.382,7.531,24.847,29.3,23.629s26.3-20.826,26.692-22.185S3644.085,366.353,3643.405,366.256Zm-30.4,8.448c-.194.291-.68-.291-.68-1.36s-.194-1.262-.971-1.262-.1-.777-.1-.777a2.149,2.149,0,0,0,.777-1.068c.291-.777.777.777.971,1.651A4.645,4.645,0,0,1,3613.01,374.7Zm20.277-5.555c-.292.225-1.03,1-.952,3.03.062,1.611.361,1.64.57,1.451a.126.126,0,0,1,.21.111c-.041.3-.212.572-.823.041a.231.231,0,0,1-.074-.118c-.219-.84-.137-2.344-.515-3.572-.388-1.262-.923-2.088-2.088-2.282s-1.991,1.8-2.282,1.8-1.214-.728-.923-1.117l2.76-3.562a1.388,1.388,0,0,1,1.158-.551,1.313,1.313,0,0,1,1.035.616c.68.971,2.989,2.73,3.3,3.3A12.237,12.237,0,0,1,3633.287,369.149Z" transform="translate(0 -277.66)" fill="#1d62a7"/>
  </g>
</svg>
